<svg xmlns="http://www.w3.org/2000/svg" width="256" height="256" viewBox="0 0 256 256">
  <rect width="256" height="256" fill="#36393f" rx="32" />
  <path d="M142.9 116.3l-12.2 12.2-25.7-25.7-25.7 25.7-12.2-12.2 37.9-37.9 37.9 37.9zm0 36l-12.2 12.2-25.7-25.7-25.7 25.7-12.2-12.2 37.9-37.9 37.9 37.9z" fill="#5865f2" />
  <path d="M168.6 63h12.8c7.1 0 12.8 5.7 12.8 12.8v104.4c0 7.1-5.7 12.8-12.8 12.8H74.6c-7.1 0-12.8-5.7-12.8-12.8V75.8c0-7.1 5.7-12.8 12.8-12.8h12.8" stroke="#5865f2" stroke-width="12" stroke-linecap="round" stroke-linejoin="round" fill="none" />
</svg> 